<svg xmlns="http://www.w3.org/2000/svg" width="80" height="80" viewBox="0 0 13 30">
  <style>
    .cls-1 { fill: #fff; }
    .cls-2 { fill: #d82727; }
    .cls-3 { fill: #000; }
  </style>
  <path class="cls-3" d="M14.11,5c.52.11,1.05.18,1.56.34a7.46,7.46,0,1,1-9.62,8V11.83l.06-.26a7.31,7.31,0,0,1,5-6.15A14.88,14.88,0,0,1,12.83,5ZM6.82,12.46a6.65,6.65,0,1,0,6.67-6.64A6.65,6.65,0,0,0,6.82,12.46Z"/>
  <path class="cls-2" d="M13.5,8A4.52,4.52,0,1,1,9,12.45,4.51,4.51,0,0,1,13.5,8Z"/>
  <path class="cls-1" d="M12.81,10.77c.1.05.26.1.26.1L15,12a.51.51,0,0,1,0,1l-1.94,1.12a.51.51,0,0,1-.82-.47V11.33A.51.51,0,0,1,12.81,10.77Z"/>
</svg>