<?xml version="1.0" encoding="utf-8"?>
<!-- Generator: Adobe Illustrator 26.0.1, SVG Export Plug-In . SVG Version: 6.00 Build 0)  -->
<svg version="1.1" id="Layer_1" xmlns="http://www.w3.org/2000/svg" xmlns:xlink="http://www.w3.org/1999/xlink" x="0px" y="0px"
	 viewBox="0 0 25 25" style="enable-background:new 0 0 25 25;" xml:space="preserve">
<style type="text/css">
	.st0{fill:#FFFFFF;}
	.st1{fill:#D82727;}
</style>
<g>
	<path d="M13.6,0c0.9,0.2,1.8,0.3,2.6,0.6c5.5,1.7,9.2,7,8.8,12.7c-0.4,5.9-4.7,10.6-10.4,11.6C7.5,26,0.9,21.1,0.1,14
		c0-0.1-0.1-0.3-0.1-0.4c0-0.7,0-1.4,0-2.1c0-0.1,0.1-0.3,0.1-0.4C0.9,5.9,3.6,2.5,8.4,0.7c0.9-0.4,2-0.5,3-0.7
		C12.1,0,12.9,0,13.6,0z M1.4,12.5c0,6.1,5,11.1,11.1,11.2c6.2,0,11.2-5,11.2-11.1c0-6.1-5-11.1-11.1-11.2C6.4,1.4,1.4,6.3,1.4,12.5
		z"/>
	<path class="st0" d="M12.5,1.4c-6.2,0-11.2,5-11.2,11.1c0,6.1,5,11.1,11.1,11.1c6.2,0,11.2-5,11.2-11.1C23.6,6.4,18.7,1.4,12.5,1.4
		z M12.5,20.1c-4.2,0-7.6-3.4-7.6-7.6c0-4.2,3.4-7.5,7.6-7.5c4.1,0,7.5,3.4,7.5,7.5C20.1,16.7,16.7,20.1,12.5,20.1z"/>
	<path class="st1" d="M12.5,4.9c4.1,0,7.5,3.4,7.5,7.5c0,4.2-3.4,7.6-7.5,7.6c-4.2,0-7.6-3.4-7.6-7.6C4.9,8.3,8.3,4.9,12.5,4.9z
		 M11.4,9.7c-0.6,0-0.9,0.4-0.9,0.9c0,1.3,0,2.5,0,3.8c0,0.8,0.6,1.2,1.4,0.8c1.1-0.6,2.2-1.2,3.2-1.9c0.7-0.4,0.8-1.2,0-1.6
		c-1.1-0.6-2.2-1.3-3.2-1.9C11.7,9.7,11.5,9.7,11.4,9.7z"/>
	<path class="st0" d="M11.4,9.7c0.1,0,0.3,0.1,0.4,0.2c1.1,0.6,2.2,1.2,3.2,1.9c0.7,0.4,0.7,1.2,0,1.6c-1.1,0.6-2.2,1.3-3.2,1.9
		c-0.7,0.4-1.4,0-1.4-0.8c0-1.3,0-2.5,0-3.8C10.4,10,10.8,9.7,11.4,9.7z"/>
</g>
</svg>
